<?xml version="1.0" ?><svg height="512" preserveAspectRatio="xMidYMid" viewBox="0 0 512 512" width="512" xmlns="http://www.w3.org/2000/svg" xmlns:xlink="http://www.w3.org/1999/xlink"><defs><style>
      .cls-1 {
        fill: #3498db;
      }

      .cls-2 {
        fill: #000;
        opacity: 0.3;
      }

      .cls-2, .cls-3 {
        fill-rule: evenodd;
      }

      .cls-3 {
        fill: #fff;
      }
    </style></defs><g><circle class="cls-1" cx="256" cy="256" r="256"/><path class="cls-2" d="M379.000,195.000 L282.043,349.568 L282.093,351.865 L186.196,502.368 C78.738,471.981 -0.000,373.186 -0.000,256.000 C-0.000,252.124 0.086,248.269 0.257,244.435 L182.992,146.519 L228.000,147.000 L290.000,157.000 L266.000,178.000 L267.000,201.000 L330.000,142.000 L343.000,185.000 L379.000,195.000 Z"/><path class="cls-3" d="M347.565,195.607 L347.565,228.135 L330.166,228.135 L330.306,196.344 L298.367,196.373 L298.367,177.628 L329.799,177.628 L329.527,141.968 L347.565,142.137 L347.565,177.628 L378.997,177.628 L378.997,195.373 L347.565,195.607 ZM290.168,157.152 C281.991,157.152 254.528,157.429 251.903,157.152 C282.619,179.167 269.191,210.494 265.569,218.579 C261.315,228.076 236.422,246.502 236.870,256.800 C236.870,275.158 286.538,279.536 287.434,331.878 C287.434,373.373 227.567,382.734 227.567,382.734 C227.567,382.734 214.609,384.682 197.239,383.749 C86.242,363.690 138.068,285.444 197.239,284.101 C196.814,269.325 197.239,251.340 197.239,251.340 C107.322,226.609 158.557,139.700 205.438,140.772 C211.533,140.420 219.104,140.772 219.104,140.772 C220.830,140.849 283.463,141.501 283.463,141.501 C283.463,141.501 301.729,122.062 302.467,129.852 C302.906,134.483 288.387,149.139 290.168,157.152 ZM160.349,330.514 C160.349,351.630 183.291,368.749 211.592,368.749 C239.893,368.749 262.835,351.630 262.835,330.514 C262.835,309.397 239.893,292.278 211.592,292.278 C183.291,292.278 160.349,309.397 160.349,330.514 ZM240.787,185.435 C231.634,162.451 210.529,149.256 193.648,155.964 C176.767,162.672 170.503,186.741 179.656,209.725 C188.809,232.708 209.914,245.903 226.795,239.195 C243.676,232.488 249.940,208.418 240.787,185.435 Z"/></g></svg>